<svg width="346" height="70" viewBox="0 0 346 70" fill="none" xmlns="http://www.w3.org/2000/svg">
<path d="M18.9187 7.58812C21.8914 9.09627 21.9 10.1807 21.5328 10.5344C23.0311 15.6999 25.969 26.6543 25.7338 29.1478C25.4986 31.6412 26.5247 34.255 27.0672 35.2503C28.3885 36.9447 31.2441 40.7965 32.0967 42.6492C33.1624 44.965 33.2361 44.6442 34.159 45.6784C34.7583 46.3499 34.5747 46.0458 35.3641 46.5646C35.9853 46.8463 37.2364 47.2632 37.2711 46.6776C37.3145 45.9456 38.424 46.599 38.8624 47.5065C39.3007 48.4139 44.0166 51.8765 45.7197 52.663C47.4228 53.4495 51.4183 57.9958 52.2756 58.2914C53.133 58.5871 60.4133 66.756 61.9587 67.4352C63.5041 68.1144 63.0575 66.4229 62.9861 65.782C62.929 65.2694 58.3331 58.7972 56.0423 55.6252C54.1137 52.8012 50.1189 46.7042 49.5691 44.9087C48.8819 42.6642 45.8816 37.9321 46.5957 37.8764C47.3098 37.8208 48.994 36.1576 50.1069 35.8317C50.9972 35.5711 69.5322 22.3563 78.6884 15.7815C83.4648 12.6855 92.7107 6.3184 91.4837 5.61886C89.9498 4.74444 89.9754 5.23567 84.5639 5.20889C79.1523 5.18212 60.8177 12.8618 59.4555 12.7811C58.0933 12.7004 50.6066 16.3216 47.8216 17.185C45.5935 17.8757 40.6706 20.3689 38.4877 21.5292C37.7303 20.1621 36.1284 17.2366 35.78 16.4716C35.3446 15.5153 35.5923 13.1793 34.4697 9.9786C33.347 6.77789 29.2779 6.24298 27.9702 6.1655C26.6625 6.08803 23.2038 6.32387 22.3865 6.27545C21.7327 6.23671 19.8793 5.83307 19.0344 5.6361C15.9023 4.66698 9.2348 2.70486 7.62199 2.60931C6.00919 2.51376 4.2771 2.77027 3.61266 2.91047L6.51736 3.71919C9.41256 4.38044 15.9461 6.07997 18.9187 7.58812Z" stroke="black"/>
<path d="M90.6104 27.0454C90.6104 26.785 90.6999 26.5612 90.8789 26.374C91.0661 26.1868 91.2858 26.0933 91.5381 26.0933H103.757C104.01 26.0933 104.225 26.1787 104.404 26.3496C104.583 26.5124 104.673 26.7199 104.673 26.9722C104.673 27.2244 104.583 27.4482 104.404 27.6436C104.225 27.8307 104.006 27.9243 103.745 27.9243H98.5449V42.292C98.5449 42.5443 98.4513 42.7599 98.2642 42.939C98.077 43.118 97.8573 43.2075 97.605 43.2075C97.3527 43.2075 97.1411 43.118 96.9702 42.939C96.7993 42.7599 96.7139 42.5443 96.7139 42.292V27.9243H91.5259C91.2736 27.9243 91.0579 27.8429 90.8789 27.6802C90.6999 27.5093 90.6104 27.2977 90.6104 27.0454ZM105.748 27.0332C105.748 26.7809 105.838 26.5653 106.017 26.3862C106.196 26.2072 106.411 26.1177 106.664 26.1177C106.916 26.1177 107.132 26.2072 107.311 26.3862C107.49 26.5653 107.579 26.7809 107.579 27.0332V32.6484C107.986 31.973 108.519 31.444 109.178 31.0615C109.837 30.6709 110.493 30.4756 111.144 30.4756C112.958 30.4756 114.244 31.0208 115.001 32.1113C115.766 33.1937 116.148 34.6504 116.148 36.4814V36.5913L116.136 42.353V42.3652C116.136 42.6175 116.047 42.8332 115.868 43.0122C115.689 43.1912 115.473 43.2808 115.221 43.2808C114.968 43.2808 114.753 43.1912 114.574 43.0122C114.395 42.8332 114.305 42.6175 114.305 42.3652V42.353L114.317 36.5669C114.317 35.2323 114.11 34.1865 113.695 33.4297C113.288 32.6729 112.486 32.2944 111.29 32.2944C110.533 32.2944 109.878 32.4531 109.325 32.7705C108.771 33.0879 108.344 33.4907 108.043 33.979C107.75 34.4673 107.604 34.9637 107.604 35.4683V42.3774C107.604 42.6297 107.514 42.8454 107.335 43.0244C107.156 43.2035 106.94 43.293 106.688 43.293C106.419 43.293 106.196 43.1994 106.017 43.0122C105.838 42.825 105.748 42.6134 105.748 42.3774V27.0332ZM124.157 43.2441C122.977 43.2441 121.907 42.9512 120.947 42.3652C119.995 41.7793 119.238 40.998 118.676 40.0215C118.115 39.0368 117.834 37.9585 117.834 36.7866C117.834 35.6717 118.098 34.6423 118.627 33.6982C119.165 32.7461 119.889 31.9811 120.8 31.4033C121.712 30.8255 122.729 30.5366 123.852 30.5366C124.886 30.5366 125.834 30.793 126.696 31.3057C127.567 31.8184 128.263 32.5101 128.784 33.3809C129.313 34.2435 129.577 35.2038 129.577 36.2617C129.577 36.6361 129.508 36.9575 129.37 37.2261C129.239 37.4946 128.995 37.6289 128.637 37.6289H119.75C119.881 38.3044 120.145 38.931 120.544 39.5088C120.951 40.0785 121.459 40.5382 122.07 40.8882C122.688 41.2381 123.376 41.4131 124.133 41.4131C124.776 41.4131 125.406 41.2707 126.025 40.9858C126.643 40.701 127.152 40.3104 127.551 39.814C127.73 39.578 127.97 39.46 128.271 39.46C128.523 39.46 128.739 39.5495 128.918 39.7285C129.097 39.9076 129.187 40.1232 129.187 40.3755C129.187 40.5952 129.113 40.7946 128.967 40.9736C128.381 41.6898 127.661 42.2472 126.806 42.646C125.96 43.0448 125.077 43.2441 124.157 43.2441ZM127.709 35.8223C127.636 35.1875 127.421 34.6097 127.062 34.0889C126.704 33.5599 126.249 33.1408 125.695 32.8315C125.142 32.5223 124.532 32.3677 123.864 32.3677C123.173 32.3677 122.542 32.5264 121.972 32.8438C121.403 33.1611 120.926 33.5802 120.544 34.1011C120.17 34.6219 119.913 35.1956 119.775 35.8223H127.709ZM145.326 26.7158C145.383 26.5449 145.493 26.3984 145.656 26.2764C145.827 26.1462 146.006 26.0811 146.193 26.0811C146.38 26.0811 146.559 26.1421 146.73 26.2642C146.901 26.3862 147.015 26.5368 147.072 26.7158L151.076 39.3989L155.092 26.7769C155.149 26.5978 155.263 26.4473 155.434 26.3252C155.604 26.195 155.784 26.1299 155.971 26.1299C156.223 26.1299 156.439 26.2194 156.618 26.3984C156.797 26.5775 156.886 26.7931 156.886 27.0454C156.886 27.1431 156.87 27.2407 156.837 27.3384L151.955 42.6704C151.898 42.8494 151.784 43 151.613 43.1221C151.442 43.2441 151.263 43.3052 151.076 43.3052C150.897 43.3052 150.722 43.2441 150.551 43.1221C150.38 43 150.266 42.8494 150.209 42.6704L146.193 29.9995L142.189 42.6704C142.132 42.8494 142.018 43 141.847 43.1221C141.676 43.2441 141.497 43.3052 141.31 43.3052C141.131 43.3052 140.956 43.2441 140.785 43.1221C140.614 43 140.5 42.8494 140.443 42.6704L135.561 27.3018C135.528 27.2041 135.512 27.1064 135.512 27.0088C135.512 26.7565 135.601 26.5409 135.78 26.3618C135.959 26.1828 136.175 26.0933 136.427 26.0933C136.614 26.0933 136.793 26.1584 136.964 26.2886C137.135 26.4188 137.249 26.5734 137.306 26.7524L141.31 39.3989L145.326 26.7158ZM159.023 28.6323C158.674 28.6323 158.364 28.5062 158.096 28.2539C157.835 28.0016 157.705 27.6965 157.705 27.3384C157.705 26.9803 157.835 26.6751 158.096 26.4229C158.364 26.1706 158.674 26.0444 159.023 26.0444C159.382 26.0444 159.691 26.1706 159.951 26.4229C160.212 26.6751 160.342 26.9803 160.342 27.3384C160.342 27.6965 160.212 28.0016 159.951 28.2539C159.691 28.5062 159.382 28.6323 159.023 28.6323ZM158.132 31.2812C158.132 31.0697 158.23 30.8866 158.425 30.7319C158.621 30.5692 158.804 30.4878 158.975 30.4878C159.259 30.4878 159.495 30.5732 159.683 30.7441C159.87 30.915 159.963 31.1388 159.963 31.4155L159.988 42.3652C159.988 42.6175 159.898 42.8332 159.719 43.0122C159.54 43.1912 159.325 43.2808 159.072 43.2808C158.82 43.2808 158.604 43.1872 158.425 43C158.246 42.821 158.157 42.6053 158.157 42.353L158.132 31.2812ZM163.126 26.1055C163.427 26.1055 163.663 26.2072 163.834 26.4106C164.013 26.606 164.103 26.8135 164.103 27.0332V42.5361C164.103 42.7477 164.005 42.9308 163.81 43.0854C163.622 43.2401 163.439 43.3174 163.26 43.3174C162.984 43.3174 162.748 43.2319 162.552 43.061C162.365 42.8901 162.271 42.6704 162.271 42.4019V27.0576C162.271 26.8216 162.357 26.606 162.528 26.4106C162.699 26.2072 162.898 26.1055 163.126 26.1055ZM171.477 43.2563C170.37 43.2563 169.389 42.9634 168.535 42.3774C167.68 41.7915 167.009 41.0225 166.521 40.0703C166.032 39.11 165.788 38.0806 165.788 36.9819C165.788 36.1519 165.931 35.3503 166.215 34.5771C166.5 33.804 166.903 33.1164 167.424 32.5142C167.945 31.9038 168.559 31.4196 169.267 31.0615C169.975 30.7035 170.748 30.5244 171.586 30.5244C172.384 30.5244 173.112 30.7238 173.771 31.1226C174.431 31.5213 175.008 31.9811 175.505 32.502V26.9844C175.505 26.7321 175.594 26.5164 175.773 26.3374C175.952 26.1584 176.168 26.0688 176.42 26.0688C176.681 26.0688 176.896 26.1584 177.067 26.3374C177.246 26.5164 177.336 26.7321 177.336 26.9844V42.353C177.336 42.6053 177.246 42.821 177.067 43C176.888 43.179 176.673 43.2686 176.42 43.2686C176.168 43.2686 175.961 43.179 175.798 43C175.643 42.821 175.566 42.6053 175.566 42.353L175.505 41.1812C175.041 41.6532 174.467 42.117 173.784 42.5728C173.1 43.0285 172.331 43.2563 171.477 43.2563ZM171.513 41.4253C172.343 41.4253 173.055 41.2015 173.649 40.7539C174.243 40.3063 174.699 39.7285 175.017 39.0205C175.334 38.3125 175.493 37.576 175.493 36.811C175.493 36.0461 175.334 35.3258 175.017 34.6504C174.707 33.9749 174.26 33.4256 173.674 33.0024C173.088 32.5711 172.384 32.3555 171.562 32.3555C170.773 32.3555 170.085 32.5833 169.499 33.0391C168.913 33.4867 168.457 34.0685 168.132 34.7847C167.806 35.4927 167.644 36.2373 167.644 37.0186C167.644 37.7917 167.802 38.516 168.12 39.1914C168.445 39.8587 168.897 40.3999 169.475 40.8149C170.061 41.2218 170.74 41.4253 171.513 41.4253ZM180.12 26.1055C180.421 26.1055 180.657 26.2072 180.828 26.4106C181.007 26.606 181.097 26.8135 181.097 27.0332V42.5361C181.097 42.7477 180.999 42.9308 180.804 43.0854C180.617 43.2401 180.433 43.3174 180.254 43.3174C179.978 43.3174 179.742 43.2319 179.546 43.061C179.359 42.8901 179.266 42.6704 179.266 42.4019V27.0576C179.266 26.8216 179.351 26.606 179.522 26.4106C179.693 26.2072 179.892 26.1055 180.12 26.1055ZM184.101 28.6323C183.751 28.6323 183.441 28.5062 183.173 28.2539C182.912 28.0016 182.782 27.6965 182.782 27.3384C182.782 26.9803 182.912 26.6751 183.173 26.4229C183.441 26.1706 183.751 26.0444 184.101 26.0444C184.459 26.0444 184.768 26.1706 185.028 26.4229C185.289 26.6751 185.419 26.9803 185.419 27.3384C185.419 27.6965 185.289 28.0016 185.028 28.2539C184.768 28.5062 184.459 28.6323 184.101 28.6323ZM183.209 31.2812C183.209 31.0697 183.307 30.8866 183.502 30.7319C183.698 30.5692 183.881 30.4878 184.052 30.4878C184.337 30.4878 184.573 30.5732 184.76 30.7441C184.947 30.915 185.041 31.1388 185.041 31.4155L185.065 42.3652C185.065 42.6175 184.975 42.8332 184.796 43.0122C184.617 43.1912 184.402 43.2808 184.149 43.2808C183.897 43.2808 183.681 43.1872 183.502 43C183.323 42.821 183.234 42.6053 183.234 42.353L183.209 31.2812ZM193.501 28.144C193.257 28.144 193.037 28.0911 192.842 27.9854C192.646 27.8714 192.37 27.8185 192.012 27.8267C191.011 27.8348 190.514 28.5509 190.522 29.9751L190.535 30.8174H193.062C193.298 30.8174 193.497 30.911 193.66 31.0981C193.831 31.2772 193.916 31.4847 193.916 31.7207C193.916 31.8997 193.835 32.0788 193.672 32.2578C193.509 32.4368 193.346 32.5264 193.184 32.5264H190.535L190.559 42.3652C190.559 42.6175 190.47 42.8332 190.291 43.0122C190.111 43.1912 189.896 43.2808 189.644 43.2808C189.391 43.2808 189.176 43.1872 188.997 43C188.818 42.821 188.728 42.6053 188.728 42.353L188.704 32.5264H187.007C186.755 32.5264 186.547 32.445 186.384 32.2822C186.23 32.1113 186.152 31.8835 186.152 31.5986C186.152 31.4359 186.226 31.2731 186.372 31.1104C186.527 30.9395 186.681 30.854 186.836 30.854L188.704 30.8174V30.0605C188.704 28.7747 188.96 27.786 189.473 27.0942C189.993 26.4025 190.868 26.0566 192.097 26.0566C192.309 26.0566 192.602 26.0892 192.976 26.1543C193.35 26.2194 193.692 26.3333 194.001 26.4961C194.311 26.6507 194.465 26.8704 194.465 27.1553C194.465 27.432 194.38 27.668 194.209 27.8633C194.046 28.0505 193.81 28.144 193.501 28.144ZM200.411 43.2441C199.231 43.2441 198.161 42.9512 197.201 42.3652C196.249 41.7793 195.492 40.998 194.93 40.0215C194.369 39.0368 194.088 37.9585 194.088 36.7866C194.088 35.6717 194.352 34.6423 194.881 33.6982C195.418 32.7461 196.143 31.9811 197.054 31.4033C197.966 30.8255 198.983 30.5366 200.106 30.5366C201.139 30.5366 202.088 30.793 202.95 31.3057C203.821 31.8184 204.517 32.5101 205.038 33.3809C205.567 34.2435 205.831 35.2038 205.831 36.2617C205.831 36.6361 205.762 36.9575 205.624 37.2261C205.493 37.4946 205.249 37.6289 204.891 37.6289H196.004C196.135 38.3044 196.399 38.931 196.798 39.5088C197.205 40.0785 197.713 40.5382 198.324 40.8882C198.942 41.2381 199.63 41.4131 200.387 41.4131C201.03 41.4131 201.66 41.2707 202.279 40.9858C202.897 40.701 203.406 40.3104 203.805 39.814C203.984 39.578 204.224 39.46 204.525 39.46C204.777 39.46 204.993 39.5495 205.172 39.7285C205.351 39.9076 205.44 40.1232 205.44 40.3755C205.44 40.5952 205.367 40.7946 205.221 40.9736C204.635 41.6898 203.915 42.2472 203.06 42.646C202.214 43.0448 201.331 43.2441 200.411 43.2441ZM203.963 35.8223C203.89 35.1875 203.674 34.6097 203.316 34.0889C202.958 33.5599 202.503 33.1408 201.949 32.8315C201.396 32.5223 200.785 32.3677 200.118 32.3677C199.426 32.3677 198.796 32.5264 198.226 32.8438C197.656 33.1611 197.18 33.5802 196.798 34.1011C196.424 34.6219 196.167 35.1956 196.029 35.8223H203.963ZM227.134 37.0308C227.338 37.0308 227.529 37.1203 227.708 37.2993C227.895 37.4784 227.989 37.6655 227.989 37.8608C227.989 38.0643 227.96 38.223 227.903 38.3369C227.513 39.2158 226.955 40.0296 226.231 40.7783C225.515 41.527 224.66 42.1292 223.667 42.585C222.675 43.0407 221.564 43.2686 220.335 43.2686C219.122 43.2686 218.024 43.0448 217.039 42.5972C216.062 42.1496 215.224 41.5311 214.524 40.7417C213.833 39.9442 213.3 39.0246 212.925 37.9829C212.559 36.9331 212.376 35.806 212.376 34.6016C212.376 33.4134 212.563 32.3066 212.938 31.2812C213.312 30.2477 213.849 29.3444 214.549 28.5713C215.249 27.79 216.083 27.1797 217.051 26.7402C218.028 26.3008 219.11 26.0811 220.298 26.0811C221.503 26.0811 222.597 26.2926 223.582 26.7158C224.575 27.139 225.433 27.7046 226.158 28.4126C226.89 29.1206 227.46 29.9059 227.867 30.7686C227.932 30.8988 227.964 31.0371 227.964 31.1836C227.964 31.4196 227.879 31.6312 227.708 31.8184C227.545 31.9974 227.374 32.0869 227.195 32.0869C226.707 32.0869 226.382 31.9079 226.219 31.5498C225.739 30.5326 224.986 29.674 223.96 28.9741C222.935 28.2661 221.714 27.9121 220.298 27.9121C219.045 27.9121 217.963 28.2132 217.051 28.8154C216.14 29.4176 215.436 30.2274 214.939 31.2446C214.451 32.2537 214.207 33.3849 214.207 34.6382C214.207 35.8914 214.451 37.0348 214.939 38.0684C215.428 39.0938 216.128 39.9116 217.039 40.522C217.959 41.1242 219.049 41.4253 220.311 41.4253C221.255 41.4253 222.113 41.2503 222.886 40.9004C223.667 40.5423 224.343 40.0703 224.913 39.4844C225.49 38.8984 225.93 38.2677 226.231 37.5923C226.394 37.2179 226.695 37.0308 227.134 37.0308ZM235.534 30.4756C236.388 30.4756 237.186 30.6465 237.926 30.9883C238.667 31.3301 239.314 31.8021 239.867 32.4043C240.429 32.9984 240.864 33.6779 241.173 34.4429C241.491 35.2078 241.649 36.0176 241.649 36.8721C241.649 38.0033 241.381 39.0531 240.844 40.0215C240.307 40.9899 239.578 41.7752 238.659 42.3774C237.747 42.9715 236.722 43.2726 235.583 43.2808C234.427 43.2808 233.385 42.9837 232.458 42.3896C231.53 41.7956 230.793 41.0143 230.248 40.0459C229.711 39.0693 229.442 38.0114 229.442 36.8721C229.442 36.0257 229.597 35.2201 229.906 34.4551C230.224 33.682 230.659 32.9984 231.212 32.4043C231.766 31.8021 232.409 31.3301 233.141 30.9883C233.882 30.6465 234.679 30.4756 235.534 30.4756ZM235.534 32.3066C234.736 32.3066 234.016 32.5182 233.373 32.9414C232.73 33.3646 232.217 33.922 231.835 34.6138C231.461 35.2974 231.273 36.042 231.273 36.8477C231.273 37.6615 231.461 38.4183 231.835 39.1182C232.209 39.818 232.722 40.3836 233.373 40.8149C234.024 41.2381 234.757 41.4497 235.57 41.4497C236.376 41.4416 237.096 41.2259 237.731 40.8027C238.374 40.3714 238.882 39.8099 239.257 39.1182C239.631 38.4264 239.818 37.6777 239.818 36.8721C239.818 36.0664 239.627 35.3177 239.245 34.626C238.87 33.9261 238.358 33.3646 237.707 32.9414C237.064 32.5182 236.339 32.3066 235.534 32.3066ZM244.849 43.0488C244.377 43.0488 243.966 42.882 243.616 42.5483C243.266 42.2147 243.091 41.8118 243.091 41.3398C243.091 40.8678 243.266 40.4691 243.616 40.1436C243.966 39.8099 244.377 39.6431 244.849 39.6431C245.329 39.6431 245.744 39.8099 246.094 40.1436C246.444 40.4691 246.619 40.8678 246.619 41.3398C246.619 41.8118 246.444 42.2147 246.094 42.5483C245.744 42.882 245.329 43.0488 244.849 43.0488Z" fill="black"/>
</svg>
